<svg class="nc-icon glyph" xmlns="http://www.w3.org/2000/svg" xmlns:xlink="http://www.w3.org/1999/xlink" x="0px" y="0px" width="16px" height="16px" viewBox="0 0 16 16"><g><path data-color="color-2" fill="#afafaf" d="M12.8,12.2c-0.4-0.4-0.4-1,0-1.4c1.6-1.6,1.6-4.1,0-5.7c-0.4-0.4-0.4-1,0-1.4s1-0.4,1.4,0
	c2.3,2.3,2.3,6.1,0,8.5C13.9,12.6,13.2,12.6,12.8,12.2z"></path>
<path fill="#afafaf" d="M11,1c0-0.8-0.9-1.3-1.6-0.8L3.7,4H1C0.4,4,0,4.4,0,5v6c0,0.6,0.4,1,1,1h2.7l5.7,3.8c0.7,0.4,1.6,0,1.6-0.8
	V1z"></path></g></svg>